HIERARCHY
ROOT Hips
{
	OFFSET 0.000000 88.474243 0.000000
	CHANNELS 6 Xposition Yposition Zposition Zrotation Yrotation Xrotation 
	JOINT Hips_Spine
	{
		OFFSET 0.000000 0.000000 0.000000
		CHANNELS 3 Zrotation Yrotation Xrotation
		JOINT Spine
		{
			OFFSET 0.005100 8.711998 -0.691000
			CHANNELS 3 Zrotation Yrotation Xrotation
			JOINT Spine1
			{
				OFFSET -0.009200 8.660301 -1.275000
				CHANNELS 3 Zrotation Yrotation Xrotation
				JOINT Spine2
				{
					OFFSET 0.006300 9.852501 -1.857000
					CHANNELS 3 Zrotation Yrotation Xrotation
					JOINT Spine2_Neck
					{
						OFFSET 0.000000 0.000000 0.000000
						CHANNELS 3 Zrotation Yrotation Xrotation
						JOINT Neck
						{
							OFFSET 0.016300 11.420799 -0.263300
							CHANNELS 3 Zrotation Yrotation Xrotation
							End Site #name: Head
							{
								OFFSET -0.019200 9.262405 2.362500
							}
						}
					}
					JOINT Spine2_LeftShoulder
					{
						OFFSET 0.000000 0.000000 0.000000
						CHANNELS 3 Zrotation Yrotation Xrotation
						JOINT LeftShoulder
						{
							OFFSET 5.616900 6.732201 -0.345700
							CHANNELS 3 Zrotation Yrotation Xrotation
							JOINT LeftArm
							{
								OFFSET 10.664888 -0.183372 -2.440700
								CHANNELS 3 Zrotation Yrotation Xrotation
								JOINT LeftForeArm
								{
									OFFSET 27.459126 0.000000 0.000000
									CHANNELS 3 Zrotation Yrotation Xrotation
									End Site #name: LeftHand
									{
										OFFSET 21.306858 0.000000 0.000000
									}
								}
							}
						}
					}
					JOINT Spine2_RightShoulder
					{
						OFFSET 0.000000 0.000000 0.000000
						CHANNELS 3 Zrotation Yrotation Xrotation
						JOINT RightShoulder
						{
							OFFSET -5.580300 6.737503 -0.344400
							CHANNELS 3 Zrotation Yrotation Xrotation
							JOINT RightArm
							{
								OFFSET -10.679335 -0.188484 -2.383900
								CHANNELS 3 Zrotation Yrotation Xrotation
								JOINT RightForeArm
								{
									OFFSET -27.503529 0.000000 0.000000
									CHANNELS 3 Zrotation Yrotation Xrotation
									End Site #name: RightHand
									{
										OFFSET -21.306808 0.000000 0.000000
									}
								}
							}
						}
					}
				}
			}
		}
	}
	JOINT Hips_LeftUpLeg
	{
		OFFSET 0.000000 0.000000 0.000000
		CHANNELS 3 Zrotation Yrotation Xrotation
		JOINT LeftUpLeg
		{
			OFFSET 6.857700 -6.739601 0.312100
			CHANNELS 3 Zrotation Yrotation Xrotation
			JOINT LeftLeg
			{
				OFFSET -0.367590 -34.731552 -4.572400
				CHANNELS 3 Zrotation Yrotation Xrotation
				End Site #name: LeftFoot
				{
					OFFSET 0.367590 -34.656704 -6.067400
				}
			}
		}
	}
	JOINT Hips_RightUpLeg
	{
		OFFSET 0.000000 0.000000 0.000000
		CHANNELS 3 Zrotation Yrotation Xrotation
		JOINT RightUpLeg
		{
			OFFSET -6.876100 -6.733299 0.301000
			CHANNELS 3 Zrotation Yrotation Xrotation
			JOINT RightLeg
			{
				OFFSET 0.347353 -34.795158 -4.515900
				CHANNELS 3 Zrotation Yrotation Xrotation
				End Site #name: RightFoot
				{
					OFFSET -0.347353 -34.589367 -6.070300
				}
			}
		}
	}
}
MOTION
Frames: 6
Frame Time: 0.041667
-0.012689 0.693507 -0.122526 17.133945 13.980016 77.873369 -0.000000 0.000000 0.000000 -2.799190 2.641695 1.279472 -0.272432 0.835629 -3.845647 0.000000 0.000000 0.000000 0.574183 2.188991 -4.458352 7.906926 -10.269568 -2.221619 -2.462371 2.844714 3.345007 -5.055028 -3.218364 1.493796 -52.601463 -10.713781 -2.995344 -8.758598 -68.935977 12.240106 0.470171 1.357463 -2.261212 8.597533 -23.892813 -1.732351 58.685171 -30.895639 -18.862042 -158.148444 74.507669 -145.936918 -0.000000 0.000000 0.000000 7.349737 -5.400204 -22.444992 10.810845 5.826568 43.334291 -0.000000 -0.000000 0.000000 -2.473887 -15.925112 -38.148016 -8.722927 1.092499 57.064572 
0.242447 1.428345 -0.579513 6.371625 0.258266 76.662169 -0.000000 0.000000 0.000000 1.295749 2.105819 10.159815 -0.534230 1.093666 1.266828 0.000000 0.000000 0.000000 0.270301 -0.103905 -0.235489 2.688599 -7.995544 -5.721911 -0.930036 1.784152 5.759753 -5.803954 -4.995103 1.967502 -55.848593 4.058092 0.890814 -30.528187 -80.175900 35.756435 -1.236228 1.341437 -0.914649 24.912377 -30.224808 -8.458725 45.567051 -5.151299 -0.328649 -104.657529 82.538955 -95.733923 -0.000000 0.000000 0.000000 5.098649 2.677166 -18.818012 2.225224 3.371001 40.079980 -0.000000 -0.000000 0.000000 -7.461360 -10.253213 -33.206397 -5.791253 -0.443025 51.754787 
0.519053 2.324838 -1.086527 0.734558 -4.303114 75.083159 -0.000000 0.000000 0.000000 3.258544 2.122543 11.815975 -0.437879 0.546068 1.684649 0.000000 0.000000 0.000000 0.155129 -0.598740 0.506044 -0.285116 -4.225882 -7.221745 -0.975009 1.141703 5.460196 -4.816221 -5.417235 2.093654 -57.063251 6.693410 6.822675 -41.235820 -82.540572 47.057236 -1.116422 0.444538 -0.044252 17.063902 -21.769025 -4.057694 50.696207 -13.444767 -13.925978 -12.576012 84.975428 -3.067455 -0.000000 0.000000 0.000000 5.086699 0.584716 -15.581646 1.768794 3.923708 41.231629 -0.000000 -0.000000 0.000000 -14.763336 -7.603649 -21.879851 -6.173238 -0.635636 51.571309 
0.841673 3.200098 -1.810405 -1.762776 -5.896968 71.956950 -0.000000 0.000000 0.000000 3.944661 2.093325 11.437116 -0.427512 0.119307 1.561024 0.000000 0.000000 0.000000 0.267498 -0.715241 0.751849 -0.128629 -0.900582 -5.649178 -0.593184 0.849549 5.242705 -4.816550 -3.809244 1.996395 -55.300284 8.019218 7.361754 -24.751755 -79.285370 31.170961 -1.447451 -0.029140 -0.307564 13.620866 -15.137152 -2.551261 42.139543 -11.194247 -18.775003 108.342123 87.986186 118.823328 -0.000000 0.000000 0.000000 6.426962 3.071890 -9.024340 1.142397 4.264755 35.896861 -0.000000 -0.000000 0.000000 -16.867532 -7.547575 -16.971981 -6.912376 -1.277117 54.869565 
1.119210 4.088791 -2.571433 -2.961219 -6.243756 67.367246 -0.000000 0.000000 0.000000 4.175883 2.055625 11.198513 -0.394942 -0.219777 1.506975 0.000000 0.000000 0.000000 0.755677 -0.599241 1.157189 -0.445223 2.855094 -4.694359 -0.091853 0.709317 4.666956 -4.541871 -0.917194 1.493261 -55.415557 11.718965 5.431563 -19.078221 -77.154677 26.195783 -1.510294 -0.414777 -0.594231 12.532836 -10.509113 -1.921998 35.769961 -7.902258 -17.894594 106.604336 87.181245 116.534463 -0.000000 0.000000 0.000000 8.378533 5.091367 -3.805134 0.080105 3.385372 32.650181 -0.000000 -0.000000 0.000000 -17.965390 -7.212458 -14.313967 -7.741654 -1.547600 55.041516 
1.340917 4.996069 -3.246867 -3.841652 -6.713160 65.486310 -0.000000 0.000000 0.000000 4.322135 2.071467 11.199868 -0.302828 -0.577959 1.483558 0.000000 0.000000 0.000000 1.230699 -0.501185 1.226840 -0.805269 5.363191 -3.936836 0.336514 0.570630 4.075588 -3.807775 1.334574 1.109011 -56.127799 14.968745 3.975539 -16.266721 -76.116545 23.992992 -1.514730 -0.656347 -0.888746 11.587325 -6.589782 -1.000117 32.385084 -4.470418 -12.880714 59.936072 86.611369 69.540529 -0.000000 0.000000 0.000000 9.743830 5.852047 -1.206582 -0.671791 2.250665 30.201870 -0.000000 -0.000000 0.000000 -18.545271 -7.025495 -12.536168 -8.095687 -1.721799 53.911553 
